<?xml version="1.0" encoding="UTF-8" standalone="no"?>
<!-- Created with Inkscape (http://www.inkscape.org/) -->

<svg
   xmlns:dc="http://purl.org/dc/elements/1.1/"
   xmlns:cc="http://creativecommons.org/ns#"
   xmlns:rdf="http://www.w3.org/1999/02/22-rdf-syntax-ns#"
   xmlns:svg="http://www.w3.org/2000/svg"
   xmlns="http://www.w3.org/2000/svg"
   xmlns:sodipodi="http://sodipodi.sourceforge.net/DTD/sodipodi-0.dtd"
   xmlns:inkscape="http://www.inkscape.org/namespaces/inkscape"
   width="24.583067mm"
   height="24.583067mm"
   viewBox="0 0 87.105355 87.105355"
   id="svg2"
   version="1.1"
   inkscape:version="0.91 r13725"
   sodipodi:docname="india_color2.svg">
  <sodipodi:namedview
     id="base"
     pagecolor="#ffffff"
     bordercolor="#666666"
     borderopacity="1.0"
     inkscape:pageopacity="0.0"
     inkscape:pageshadow="2"
     inkscape:zoom="3.959798"
     inkscape:cx="91.654119"
     inkscape:cy="52.24923"
     inkscape:document-units="px"
     inkscape:current-layer="layer1"
     showgrid="false"
     fit-margin-top="0"
     fit-margin-left="0"
     fit-margin-right="0"
     fit-margin-bottom="0"
     inkscape:window-width="1680"
     inkscape:window-height="987"
     inkscape:window-x="1912"
     inkscape:window-y="-8"
     inkscape:window-maximized="1" />
  <defs
     id="defs4">
    <marker
       inkscape:isstock="true"
       style="overflow:visible"
       id="marker4514"
       refX="0"
       refY="0"
       orient="auto"
       inkscape:stockid="Arrow2Send">
      <path
         inkscape:connector-curvature="0"
         transform="matrix(-0.3,0,0,-0.3,0.69,0)"
         d="M 8.7185878,4.0337352 -2.2072895,0.01601326 8.7185884,-4.0017078 c -1.7454984,2.3720609 -1.7354408,5.6174519 -6e-7,8.035443 z"
         style="fill:#12239e;fill-opacity:1;fill-rule:evenodd;stroke:#12239e;stroke-width:0.625;stroke-linejoin:round;stroke-opacity:1"
         id="path4516" />
    </marker>
    <marker
       inkscape:isstock="true"
       style="overflow:visible"
       id="Arrow1Send"
       refX="0"
       refY="0"
       orient="auto"
       inkscape:stockid="Arrow1Send">
      <path
         inkscape:connector-curvature="0"
         transform="matrix(-0.2,0,0,-0.2,-1.2,0)"
         style="fill:#12239e;fill-opacity:1;fill-rule:evenodd;stroke:#12239e;stroke-width:1pt;stroke-opacity:1"
         d="M 0,0 5,-5 -12.5,0 5,5 0,0 Z"
         id="path4183" />
    </marker>
    <marker
       inkscape:isstock="true"
       style="overflow:visible"
       id="Arrow1Mend"
       refX="0"
       refY="0"
       orient="auto"
       inkscape:stockid="Arrow1Mend">
      <path
         inkscape:connector-curvature="0"
         transform="matrix(-0.4,0,0,-0.4,-4,0)"
         style="fill:#12239e;fill-opacity:1;fill-rule:evenodd;stroke:#12239e;stroke-width:1pt;stroke-opacity:1"
         d="M 0,0 5,-5 -12.5,0 5,5 0,0 Z"
         id="path4177" />
    </marker>
    <marker
       inkscape:isstock="true"
       style="overflow:visible"
       id="Arrow2Send"
       refX="0"
       refY="0"
       orient="auto"
       inkscape:stockid="Arrow2Send">
      <path
         inkscape:connector-curvature="0"
         transform="matrix(-0.3,0,0,-0.3,0.69,0)"
         d="M 8.7185878,4.0337352 -2.2072895,0.01601326 8.7185884,-4.0017078 c -1.7454984,2.3720609 -1.7354408,5.6174519 -6e-7,8.035443 z"
         style="fill:#12239e;fill-opacity:1;fill-rule:evenodd;stroke:#12239e;stroke-width:0.625;stroke-linejoin:round;stroke-opacity:1"
         id="path4201" />
    </marker>
    <clipPath
       id="clip0">
      <rect
         id="rect4331"
         height="227"
         width="1920"
         y="0"
         x="0" />
    </clipPath>
  </defs>
  <metadata
     id="metadata7">
    <rdf:RDF>
      <cc:Work
         rdf:about="">
        <dc:format>image/svg+xml</dc:format>
        <dc:type
           rdf:resource="http://purl.org/dc/dcmitype/StillImage" />
        <dc:title></dc:title>
      </cc:Work>
    </rdf:RDF>
  </metadata>
  <g
     transform="translate(-182.59521,-183.13609)"
     id="layer1"
     inkscape:groupmode="layer"
     inkscape:label="Layer 1">
    <circle
       inkscape:export-ydpi="1200"
       inkscape:export-xdpi="1200"
       r="34.092648"
       cy="227.57268"
       cx="226.52673"
       id="path3347"
       style="opacity:1;fill:none;fill-opacity:0.51655626;stroke:#00b0f0;stroke-width:4;stroke-miterlimit:4;stroke-dasharray:none;stroke-dashoffset:0;stroke-opacity:1" />
    <rect
       inkscape:export-ydpi="1200"
       inkscape:export-xdpi="1200"
       ry="19.950512"
       y="184.13609"
       x="183.59521"
       height="85.105354"
       width="85.105354"
       id="rect4149"
       style="opacity:1;fill:none;fill-opacity:0.51655626;stroke:#00b0f0;stroke-width:2;stroke-linecap:butt;stroke-linejoin:round;stroke-miterlimit:4;stroke-dasharray:none;stroke-dashoffset:0;stroke-opacity:1" />
    <path
       style="fill:#00b0f0;fill-opacity:1;stroke:#00b0f0;stroke-width:0.40000004;stroke-linecap:butt;stroke-linejoin:miter;stroke-miterlimit:4;stroke-dasharray:none;stroke-opacity:1"
       d="m 219.56083,255.88669 c -1.07106,-0.65733 -1.42842,-1.24237 -1.96586,-3.21839 -0.36017,-1.32422 -0.84566,-2.44434 -1.58332,-3.65299 -0.46318,-0.7589 -0.782,-1.51346 -1.19537,-2.82915 -0.31004,-0.98682 -0.75758,-2.15081 -0.99454,-2.58663 -0.69999,-1.28747 -1.12803,-2.50031 -1.46926,-4.16301 -0.79683,-3.88273 -0.91936,-5.0106 -0.64983,-5.98163 0.13681,-0.49291 -0.0236,-2.12568 -0.27056,-2.75439 -0.13619,-0.34668 -0.35634,-0.24292 -0.35634,0.16796 0,0.42944 -0.82655,1.20759 -1.54153,1.45128 -0.32605,0.11113 -0.87279,0.20205 -1.21497,0.20205 -0.6081,0 -0.64043,-0.019 -1.43012,-0.84087 -0.7608,-0.79179 -1.83903,-2.25422 -1.83903,-2.49433 0,-0.0599 0.23518,-0.1102 0.52263,-0.11169 0.28745,-0.001 0.77165,-0.12229 1.07601,-0.26846 l 0.55338,-0.26575 -0.61486,-0.0757 c -0.8145,-0.10025 -1.53321,-0.49154 -2.08302,-1.13406 -0.36226,-0.42332 -0.44227,-0.60869 -0.41288,-0.95652 0.0269,-0.31854 0.10081,-0.44308 0.28239,-0.47592 0.13527,-0.0245 0.34235,-0.12997 0.46017,-0.23446 0.17177,-0.15234 0.58606,-0.19248 2.09053,-0.20256 l 1.8763,-0.0126 0.0377,-0.45311 c 0.0505,-0.60665 -0.15511,-1.3247 -0.52522,-1.83469 -0.16699,-0.23009 -0.39343,-0.54078 -0.50323,-0.69043 -0.10978,-0.14964 -0.22999,-0.49865 -0.26712,-0.77557 -0.0515,-0.38413 -0.1655,-0.57826 -0.48082,-0.81883 -0.25141,-0.19182 -0.4133,-0.42284 -0.4133,-0.58979 0,-0.50646 1.10865,-1.77737 1.71966,-1.97135 0.14101,-0.0448 0.36208,0.004 0.51991,0.11451 0.34166,0.23937 1.10803,0.24873 1.54793,0.0189 0.50006,-0.26125 2.50699,-2.37468 3.01271,-3.17255 0.2445,-0.38576 0.61295,-0.78849 0.81878,-0.89496 0.20581,-0.10646 0.3754,-0.26134 0.37684,-0.34417 0.001,-0.0828 0.25434,-0.53807 0.56197,-1.01165 0.4629,-0.71257 0.54936,-0.93527 0.50145,-1.29157 -0.0525,-0.39099 -6.9e-4,-0.48229 0.56464,-0.99441 0.61335,-0.55557 0.69164,-0.85068 0.2257,-0.85068 -0.1208,0 -0.32505,-0.11748 -0.45389,-0.26106 -0.12884,-0.14358 -0.52571,-0.42615 -0.88193,-0.62794 -0.94103,-0.53306 -1.01246,-0.68167 -1.01246,-2.10637 l 0,-1.21855 0.4304,-0.47654 c 0.23673,-0.26209 0.43041,-0.52365 0.43041,-0.58123 0,-0.18076 -0.52282,-0.67311 -1.38344,-1.30281 -0.45653,-0.33404 -0.83006,-0.69701 -0.83006,-0.80661 0,-0.21228 0.46837,-0.69675 0.99783,-1.03214 0.51722,-0.32763 2.01003,-0.68925 2.84529,-0.68925 l 0.77193,0 1.39953,1.23109 c 0.76975,0.67711 1.58748,1.34729 1.81719,1.48929 0.48183,0.29788 0.69001,0.27743 1.99029,-0.19549 0.73337,-0.26673 1.02214,-0.31382 1.51152,-0.24649 0.67686,0.0931 1.33256,0.55303 1.33256,0.93466 0,0.59431 -0.7587,1.84347 -1.62938,2.68269 -0.55631,0.53621 -0.59641,0.95465 -0.14784,1.54293 0.45425,0.59572 0.52372,1.19558 0.17844,1.54095 -0.23487,0.23495 -0.35735,0.26277 -0.86196,0.19581 l -0.58818,-0.078 0.29182,0.70984 c 0.16051,0.39041 0.29314,0.83244 0.29474,0.98228 0.001,0.14984 0.12053,0.3354 0.26427,0.41235 0.14374,0.0769 0.50795,0.32819 0.80935,0.55833 0.30141,0.23013 0.93624,0.64912 1.41075,0.9311 0.4745,0.28198 0.88987,0.58342 0.92303,0.66987 0.0332,0.0864 -0.10837,0.36754 -0.31452,0.62465 -0.41933,0.52299 -0.75349,1.36383 -0.75349,1.89598 0,0.43331 0.33489,0.66213 2.80874,1.91916 l 1.76348,0.89607 1.22865,0 c 1.22126,0 1.2318,0.003 1.75192,0.4289 0.65378,0.53587 1.11583,0.69926 3.1213,1.10374 1.66423,0.33566 2.07743,0.32481 2.42899,-0.0638 0.17948,-0.19838 0.18946,-0.309 0.0705,-0.78144 -0.27149,-1.07848 -0.0861,-1.973 0.45122,-2.17735 0.44729,-0.17011 0.64588,0.0827 0.74843,0.95259 0.10792,0.91557 0.16021,0.9927 0.78827,1.16285 0.55053,0.14915 2.40259,0.0691 3.40729,-0.14726 1.08095,-0.2328 1.40859,-0.82431 0.67431,-1.21739 -0.46736,-0.25019 -0.39118,-0.58136 0.16841,-0.73208 0.3267,-0.088 0.7827,-0.42361 1.46879,-1.08105 2.08284,-1.99583 2.14854,-2.04025 3.15997,-2.13689 0.63693,-0.0609 1.01099,-0.16576 1.2675,-0.35546 0.2857,-0.21129 0.4155,-0.24151 0.60395,-0.14063 0.21888,0.11718 0.67172,0.88598 0.82097,1.3938 0.0333,0.11344 0.31904,0.3206 0.63488,0.46036 0.54553,0.24138 0.57073,0.27411 0.50418,0.65477 -0.28933,1.65486 -0.2126,1.50082 -0.7857,1.57733 -0.56401,0.0753 -1.19566,0.51516 -1.78407,1.24236 -0.26621,0.329 -0.37023,0.61374 -0.42415,1.16107 -0.0393,0.39883 -0.15545,0.89122 -0.25814,1.09418 -0.10269,0.20296 -0.25715,0.77441 -0.34325,1.26989 -0.21086,1.21345 -0.61845,2.0145 -1.08571,2.13383 -0.43646,0.11146 -0.55951,0.28812 -0.56197,0.80677 -6.9e-4,0.21851 -0.0803,0.60598 -0.17607,0.86105 -0.0958,0.25507 -0.20885,0.84546 -0.25121,1.31197 -0.0829,0.91363 -0.2272,1.30441 -0.48148,1.30441 -0.21024,0 -0.36514,-0.35741 -0.69842,-1.61154 -0.29183,-1.09813 -0.54862,-1.70964 -0.71794,-1.70964 -0.0569,0 -0.21962,0.2797 -0.36166,0.62156 -0.23765,0.572 -0.27909,0.61039 -0.51985,0.4815 -0.35806,-0.19168 -0.75932,-1.12936 -0.65729,-1.53599 0.0477,-0.19027 0.34731,-0.51713 0.73973,-0.80711 0.63899,-0.47218 0.85382,-0.83762 0.76466,-1.30075 -0.0561,-0.29145 -0.65425,-0.39519 -2.33099,-0.40428 -1.43894,-0.008 -1.47406,-0.0242 -1.73209,-0.81208 -0.12631,-0.38562 -0.27012,-0.53808 -0.71167,-0.75444 -0.7189,-0.35226 -1.51495,-0.36938 -1.84458,-0.0397 -0.13527,0.1353 -0.24594,0.29479 -0.24594,0.35442 0,0.16964 0.76554,0.87564 0.94949,0.87564 0.41069,0 0.29426,0.40783 -0.28412,0.9952 l -0.59793,0.60722 0.50797,0.49318 c 0.42026,0.40801 0.51824,0.59359 0.56741,1.07464 0.0327,0.31981 0.17853,0.90443 0.3241,1.29916 0.20316,0.5509 0.25635,0.93416 0.22893,1.64923 l -0.0357,0.93155 -0.63681,0.21613 c -0.35026,0.11888 -1.00008,0.38956 -1.44406,0.60151 -0.83802,0.40006 -0.83057,0.38949 -0.99689,1.41494 -0.0435,0.26827 -0.15746,0.6393 -0.2532,0.8245 -0.22218,0.42977 -1.08221,1.02346 -1.73879,1.20031 -0.39678,0.10687 -0.66653,0.31983 -1.22218,0.96489 -1.34696,1.56369 -2.29149,2.55136 -3.2833,3.43325 -0.62109,0.55226 -1.04414,1.03385 -1.1286,1.28478 -0.17638,0.524 -0.5891,0.81736 -1.34701,0.95747 -0.35283,0.0652 -0.66695,0.20269 -0.73783,0.3229 -0.31596,0.53584 -0.52403,0.69158 -1.01121,0.75695 -0.28401,0.0381 -0.61304,0.17613 -0.7312,0.30673 -0.29808,0.32947 -0.35571,1.53547 -0.16361,3.42367 l 0.15663,1.53955 -0.38741,0.88291 c -0.2918,0.66501 -0.42694,1.22749 -0.54758,2.27913 -0.16605,1.44743 -0.23801,1.69279 -0.49649,1.69279 -0.25265,0 -0.89398,0.76052 -1.16087,1.37664 -0.2043,0.47163 -0.36381,0.63478 -0.87285,0.89281 -0.4107,0.20817 -0.6478,0.41508 -0.69606,0.60742 -0.1112,0.44315 -0.81639,1.05956 -1.29411,1.13116 -0.2976,0.0446 -0.5454,-0.014 -0.85038,-0.20119 z"
       id="path4231"
       inkscape:connector-curvature="0"
       inkscape:export-xdpi="1200"
       inkscape:export-ydpi="1200" />
  </g>
</svg>
