<?xml version="1.0" encoding="UTF-8" standalone="no"?>
<!-- Created with Inkscape (http://www.inkscape.org/) -->

<svg
   width="24.583063mm"
   height="24.583063mm"
   viewBox="0 0 24.583063 24.583063"
   version="1.1"
   id="svg41"
   inkscape:version="1.1.2 (b8e25be833, 2022-02-05)"
   sodipodi:docname="scatter_trend.svg"
   xmlns:inkscape="http://www.inkscape.org/namespaces/inkscape"
   xmlns:sodipodi="http://sodipodi.sourceforge.net/DTD/sodipodi-0.dtd"
   xmlns="http://www.w3.org/2000/svg"
   xmlns:svg="http://www.w3.org/2000/svg">
  <sodipodi:namedview
     id="namedview43"
     pagecolor="#ffffff"
     bordercolor="#666666"
     borderopacity="1.0"
     inkscape:pageshadow="2"
     inkscape:pageopacity="0.0"
     inkscape:pagecheckerboard="0"
     inkscape:document-units="mm"
     showgrid="false"
     fit-margin-top="0"
     fit-margin-left="0"
     fit-margin-right="0"
     fit-margin-bottom="0"
     inkscape:zoom="3.9408307"
     inkscape:cx="51.131352"
     inkscape:cy="52.273243"
     inkscape:window-width="1920"
     inkscape:window-height="986"
     inkscape:window-x="-11"
     inkscape:window-y="-11"
     inkscape:window-maximized="1"
     inkscape:current-layer="layer1" />
  <defs
     id="defs38" />
  <g
     inkscape:label="Layer 1"
     inkscape:groupmode="layer"
     id="layer1"
     transform="translate(-56.458779,-117.15241)">
    <g
       id="g11971"
       transform="matrix(1.0039272,0,0,1.0039272,40.790045,1.489008)">
      <path
         style="fill:#00b0f0;fill-opacity:1;stroke-width:0.0180027"
         d="m 32.852283,123.13243 c -0.190993,-0.0801 -0.321187,-0.21938 -0.385107,-0.41182 -0.0458,-0.13788 -0.02925,-0.37176 0.03517,-0.49735 0.06239,-0.12161 0.178647,-0.23837 0.302059,-0.30337 0.08845,-0.0466 0.111829,-0.0506 0.294118,-0.0506 0.182288,0 0.205667,0.004 0.294118,0.0506 0.128639,0.0678 0.247325,0.18994 0.305906,0.31491 0.04205,0.0897 0.04808,0.1251 0.04808,0.28258 0,0.15748 -0.006,0.19287 -0.04808,0.28257 -0.06122,0.13062 -0.176646,0.24604 -0.312964,0.31298 -0.0902,0.0442 -0.132521,0.0533 -0.269057,0.0575 -0.137189,0.004 -0.177695,-0.002 -0.264251,-0.038 z"
         id="path370" />
      <path
         id="path368"
         style="fill:#00b0f0;fill-opacity:1;stroke-width:0.0680417"
         d="m 109.13281,462.01367 c -0.30095,0.003 -0.58627,0.0323 -0.80859,0.0899 -0.75537,0.19566 -1.27774,0.49583 -1.8418,1.05664 -0.81873,0.81403 -1.1493,1.61925 -1.15039,2.80273 -0.001,1.14308 0.43068,2.14573 1.25,2.89453 0.43781,0.4001 1.17555,0.80049 1.71875,0.93164 0.8938,0.21634 1.8838,0.10205 2.7461,-0.31445 0.61823,-0.29862 1.45449,-1.14556 1.75976,-1.7832 1.03237,-2.15634 -0.0134,-4.69744 -2.25586,-5.48438 -0.37109,-0.13039 -0.91638,-0.19853 -1.41797,-0.19336 z m 2.02149,3.59571 c 0.007,-2.2e-4 0.016,0 0.0234,0 0.26121,-10e-6 0.34571,0.11977 0.34571,0.48828 0,0.75643 -0.56058,1.58726 -1.29297,1.91796 v -0.002 c -0.66276,0.30085 -1.22872,0.29184 -1.32813,-0.0215 -0.0784,-0.24699 0.12023,-0.45459 0.48828,-0.50977 0.77203,-0.11577 1.23828,-0.56738 1.38477,-1.33984 0.0781,-0.41151 0.15724,-0.5264 0.37891,-0.5332 z"
         transform="scale(0.26458333)" />
      <path
         style="fill:#00b0f0;fill-opacity:1;stroke:#00b0f0;stroke-width:0.318;stroke-miterlimit:4;stroke-dasharray:none;stroke-opacity:1"
         d="m 29.93906,125.67686 c -0.0198,-0.0199 -0.036,-0.0541 -0.036,-0.0763 0,-0.0293 0.279577,-0.31991 1.021828,-1.06217 1.075474,-1.07547 1.069474,-1.07027 1.146211,-0.99353 0.07673,0.0768 0.08193,0.0707 -0.99354,1.14621 -0.742254,0.74225 -1.032865,1.02182 -1.062159,1.02182 -0.02218,0 -0.05654,-0.0162 -0.07633,-0.036 z"
         id="path364" />
      <path
         style="fill:#00b0f0;fill-opacity:1;stroke-width:0.0180027"
         d="m 28.720025,127.34403 c -0.18664,-0.0609 -0.33322,-0.19062 -0.416776,-0.36882 -0.04082,-0.0871 -0.04744,-0.12503 -0.04744,-0.2722 0,-0.14746 0.0065,-0.18467 0.04727,-0.27004 0.07297,-0.15287 0.161803,-0.24218 0.317331,-0.31905 0.12614,-0.0623 0.149697,-0.0679 0.282568,-0.0666 0.339051,0.003 0.597847,0.22151 0.659477,0.55591 0.05142,0.27896 -0.107299,0.57684 -0.375597,0.70493 -0.123922,0.0591 -0.343714,0.076 -0.466825,0.0359 z"
         id="path362" />
      <path
         id="path360"
         style="fill:#00b0f0;fill-opacity:1;stroke-width:0.0680417"
         d="m 122.20508,474.95508 c -0.43007,0 -0.86,0.0582 -1.21289,0.17383 -1.16938,0.38309 -2.12476,1.31633 -2.53125,2.47461 -0.20871,0.59474 -0.25577,1.63415 -0.10156,2.22656 0.36287,1.3943 1.44909,2.50244 2.83007,2.88867 0.5624,0.15723 1.80915,0.10449 2.3418,-0.0996 1.27764,-0.48994 2.22232,-1.54889 2.52344,-2.83008 0.14581,-0.62033 0.0974,-1.60047 -0.10742,-2.18554 -0.40505,-1.1573 -1.3597,-2.09148 -2.5293,-2.47461 -0.35289,-0.11566 -0.78283,-0.17383 -1.21289,-0.17383 z m 1.90625,3.57617 c 0.24323,-0.009 0.43761,0.25704 0.37695,0.60156 -0.14644,0.83161 -0.61267,1.48734 -1.29297,1.82031 -0.47363,0.23169 -1.05715,0.29817 -1.21679,0.13868 -0.15149,-0.15213 -0.14782,-0.49057 0.006,-0.57032 0.0655,-0.034 0.26071,-0.0847 0.43359,-0.10742 0.39368,-0.0571 0.87701,-0.35949 1.06641,-0.66601 0.0795,-0.1287 0.19076,-0.42671 0.24609,-0.66407 0.0554,-0.23743 0.14073,-0.45804 0.18945,-0.48828 0.0649,-0.0412 0.12941,-0.0621 0.19141,-0.0645 z"
         transform="scale(0.26458333)" />
      <path
         id="path356"
         style="fill:#00b0f0;fill-opacity:1;stroke-width:0.0680417"
         d="m 96.412109,474.95703 c -0.503153,-0.003 -1.032721,0.0626 -1.373047,0.19141 -0.94625,0.35773 -1.647914,0.92763 -2.125,1.72265 -0.863557,1.43906 -0.699109,3.30864 0.404297,4.60547 0.474724,0.55797 1.175451,1.00559 1.908203,1.21875 v 0.002 c 0.512659,0.14778 1.56347,0.16069 2.072266,0.0254 0.689514,-0.1835 1.229183,-0.50072 1.779297,-1.04883 0.971085,-0.96756 1.357705,-2.15536 1.124995,-3.45703 -0.262978,-1.47096 -1.278569,-2.619 -2.76562,-3.125 -0.258196,-0.088 -0.634049,-0.13214 -1.025391,-0.13477 z m 1.828125,3.58008 c 0.08651,-5e-4 0.176621,0.036 0.25586,0.11523 0.0906,0.0905 0.106913,0.19632 0.08008,0.49414 -0.06865,0.75708 -0.536739,1.43102 -1.232422,1.77344 -0.556524,0.27364 -1.114674,0.34101 -1.283203,0.1543 -0.232324,-0.25746 -0.06212,-0.63281 0.287109,-0.63281 0.70718,0 1.491559,-0.73261 1.496094,-1.39649 0.0022,-0.30311 0.191594,-0.50662 0.396484,-0.50781 z"
         transform="scale(0.26458333)" />
      <path
         style="fill:#00b0f0;fill-opacity:1;stroke:#00b0f0;stroke-width:0.318;stroke-miterlimit:4;stroke-dasharray:none;stroke-opacity:1"
         d="m 25.758962,129.87594 c -0.04868,-0.0567 -0.05236,-0.0748 -0.0255,-0.12549 0.01459,-0.0275 0.474828,-0.49763 1.022769,-1.04469 0.901639,-0.90018 1.001738,-0.99464 1.053968,-0.99464 0.04121,0 0.06589,0.0125 0.0863,0.0436 0.02558,0.039 0.02576,0.049 0.0017,0.0945 -0.04646,0.0877 -2.032842,2.05818 -2.074794,2.05818 -0.02054,0 -0.04952,-0.0142 -0.0644,-0.0315 z"
         id="path352" />
      <path
         id="path350"
         style="fill:#00b0f0;fill-opacity:1;stroke-width:0.0680417"
         d="m 109.24219,487.90234 c -0.5629,-3.7e-4 -0.77227,0.0317 -1.21289,0.1836 -1.30091,0.44904 -2.26252,1.46459 -2.59375,2.73633 -0.13346,0.51231 -0.13346,1.52096 0,2.0332 0.38995,1.49718 1.73576,2.67652 3.33203,2.91992 0.28349,0.0435 1.07826,-0.012 1.45508,-0.10156 0.17271,-0.0412 0.54351,-0.18501 0.82422,-0.32031 0.63013,-0.3035 1.35982,-1.00485 1.68554,-1.6211 0.27936,-0.5286 0.49024,-1.34504 0.49024,-1.89258 0,-0.54757 -0.21086,-1.36401 -0.49024,-1.89257 -0.3277,-0.62004 -1.06845,-1.33575 -1.6914,-1.63282 -0.71537,-0.34095 -1.02613,-0.41192 -1.79883,-0.41211 z m 1.92773,3.56641 c 0.0883,-0.003 0.17733,0.0348 0.25391,0.11133 0.16724,0.16724 0.10091,0.83937 -0.12695,1.28906 -0.22699,0.44791 -0.76953,0.93249 -1.24219,1.10938 v -0.002 c -0.51135,0.19162 -0.94122,0.18633 -1.08008,-0.0117 -0.0582,-0.0831 -0.10547,-0.19028 -0.10547,-0.23828 0,-0.16554 0.26706,-0.35937 0.49609,-0.35937 0.56756,0 1.28965,-0.60245 1.37696,-1.14844 0.0739,-0.46205 0.10014,-0.54343 0.20703,-0.65039 0.0652,-0.0638 0.14275,-0.0972 0.2207,-0.0996 z"
         transform="scale(0.26458333)" />
      <path
         style="fill:#00b0f0;fill-opacity:1;stroke-width:0.0180027"
         d="m 24.518609,131.53064 c -0.216071,-0.0714 -0.365166,-0.22361 -0.432874,-0.44173 -0.109334,-0.35223 0.08297,-0.71338 0.438834,-0.82414 0.196851,-0.0613 0.39247,-0.0312 0.56742,0.0873 0.337424,0.22844 0.385844,0.71302 0.100572,1.00654 -0.169039,0.17393 -0.450793,0.24586 -0.673952,0.17207 z"
         id="path346" />
      <path
         style="fill:#00b0f0;fill-opacity:1;stroke:#00b0f0;stroke-width:0.318;stroke-miterlimit:4;stroke-dasharray:none;stroke-opacity:1"
         d="m 22.233906,133.38196 c -0.03586,-0.0359 -0.036,-0.06 -0.036,-5.85087 0,-5.79087 1.53e-4,-5.81501 0.036,-5.85087 0.04636,-0.0464 0.09365,-0.0457 0.136731,0.002 0.03192,0.0353 0.03492,0.0805 0.0433,0.65259 l 0.009,0.61473 0.18604,0.009 c 0.157098,0.008 0.190005,0.0144 0.211529,0.044 0.03342,0.0459 0.03215,0.0701 -0.006,0.11583 -0.02756,0.033 -0.05408,0.0384 -0.211533,0.0425 l -0.180024,0.005 -0.0047,0.62559 -0.0047,0.62559 h 0.311895 c 0.288986,0 0.314778,0.003 0.351284,0.0367 0.05242,0.0489 0.04972,0.0966 -0.008,0.14201 -0.04373,0.0344 -0.07115,0.0373 -0.351284,0.0373 H 22.41349 l 0.0047,0.62559 0.0047,0.6256 0.180025,0.005 c 0.157455,0.004 0.183975,0.009 0.211533,0.0425 0.03817,0.0458 0.03943,0.07 0.006,0.11584 -0.02151,0.0295 -0.05444,0.0363 -0.211532,0.044 l -0.186038,0.009 v 0.62109 0.62109 l 0.321038,0.009 c 0.291142,0.008 0.323421,0.0123 0.346554,0.044 0.03391,0.0465 0.03219,0.0698 -0.0088,0.12059 -0.03342,0.0413 -0.04321,0.0426 -0.351054,0.0482 l -0.316676,0.005 v 0.61823 0.61825 l 0.181644,0.006 c 0.165973,0.005 0.184647,0.01 0.21645,0.0492 0.03441,0.0426 0.03248,0.097 -0.0049,0.13701 -0.0092,0.01 -0.09947,0.0221 -0.200506,0.027 l -0.18371,0.009 v 0.62109 0.62109 l 0.323388,0.009 0.323392,0.009 0.0266,0.0475 c 0.02381,0.0425 0.02341,0.0523 -0.004,0.0941 l -0.03058,0.0467 -0.319406,0.005 -0.319403,0.005 -0.0047,0.62559 -0.0047,0.6256 h 0.172076 c 0.158695,0 0.175512,0.004 0.216267,0.0442 0.05521,0.0552 0.05521,0.0724 0,0.12765 -0.04074,0.0408 -0.05759,0.0443 -0.216034,0.0443 H 22.41398 v 0.53107 c 0,0.29211 0.0058,0.53109 0.01289,0.53109 0.007,0 0.268882,-0.25519 0.581771,-0.56709 0.365778,-0.36461 0.581722,-0.56708 0.60482,-0.56708 0.04886,0 0.114726,0.0647 0.114726,0.11257 0,0.0273 -0.170941,0.2104 -0.567086,0.60726 -0.311896,0.31245 -0.567085,0.574 -0.567085,0.58123 0,0.007 0.238988,0.0131 0.53108,0.0131 h 0.53108 v -0.17184 c 0,-0.15845 0.0035,-0.17529 0.04419,-0.21603 0.0243,-0.0243 0.05303,-0.0443 0.06383,-0.0443 0.0108,0 0.03953,0.0199 0.06383,0.0443 0.04076,0.0408 0.04418,0.0575 0.04418,0.21626 v 0.17208 l 0.625593,-0.005 0.625593,-0.005 0.009,-0.32339 0.009,-0.3234 0.04743,-0.0265 c 0.04249,-0.0239 0.05229,-0.0234 0.0941,0.004 l 0.04667,0.0305 0.0049,0.31941 0.0049,0.3194 h 0.621094 0.621093 l 0.0045,-0.15302 c 0.0026,-0.0841 0.0084,-0.16987 0.01307,-0.19044 0.01169,-0.0511 0.09021,-0.0859 0.137327,-0.0606 0.05305,0.0284 0.07012,0.092 0.07012,0.26121 v 0.15185 h 0.619932 0.619933 l 0.0057,-0.31668 c 0.0055,-0.30785 0.0069,-0.31763 0.04816,-0.35105 0.05076,-0.041 0.07413,-0.0428 0.120583,-0.009 0.03169,0.0231 0.03579,0.0554 0.04394,0.34656 l 0.009,0.32104 h 0.621095 0.621092 l 0.0045,-0.15302 c 0.006,-0.20101 0.01452,-0.2319 0.07043,-0.25315 0.03535,-0.0135 0.05728,-0.011 0.08888,0.01 0.03876,0.0254 0.04233,0.0415 0.04708,0.21201 l 0.0052,0.18452 0.625594,0.005 0.625593,0.005 v -0.30385 c 0,-0.28014 0.0029,-0.30755 0.03731,-0.35129 0.04478,-0.0569 0.0863,-0.0602 0.139322,-0.0108 0.03762,0.0351 0.0394,0.0509 0.0394,0.35129 v 0.31457 l 0.625594,-0.005 0.625593,-0.005 0.0047,-0.18003 c 0.0041,-0.15746 0.0095,-0.18398 0.0425,-0.21153 0.04574,-0.0382 0.07003,-0.0395 0.115833,-0.006 0.02951,0.0215 0.03635,0.0544 0.04395,0.21154 l 0.009,0.18603 0.614725,0.009 c 0.572101,0.008 0.617355,0.0114 0.652597,0.0433 0.04758,0.0431 0.04822,0.0904 0.002,0.13674 -0.03586,0.0359 -0.06001,0.036 -5.850874,0.036 -5.790864,0 -5.815017,-1.5e-4 -5.850873,-0.036 z"
         id="path87" />
    </g>
    <circle
       inkscape:export-ydpi="1200"
       inkscape:export-xdpi="1200"
       r="9.6217022"
       cy="129.69341"
       cx="68.857231"
       id="path3347"
       style="fill:none;fill-opacity:0.516556;stroke:#00b0f0;stroke-width:1.12889;stroke-miterlimit:4;stroke-dasharray:none;stroke-dashoffset:0;stroke-opacity:1" />
    <rect
       inkscape:export-ydpi="1200"
       inkscape:export-xdpi="1200"
       ry="5.6304774"
       y="117.43463"
       x="56.741001"
       height="24.01862"
       width="24.01862"
       id="rect4149"
       style="fill:none;fill-opacity:0.516556;stroke:#00b0f0;stroke-width:0.564444;stroke-linecap:butt;stroke-linejoin:round;stroke-miterlimit:4;stroke-dasharray:none;stroke-dashoffset:0;stroke-opacity:1" />
  </g>
</svg>
