<?xml version="1.0" encoding="UTF-8" standalone="no"?>
<!-- Created with Inkscape (http://www.inkscape.org/) -->

<svg
   xmlns:dc="http://purl.org/dc/elements/1.1/"
   xmlns:cc="http://creativecommons.org/ns#"
   xmlns:rdf="http://www.w3.org/1999/02/22-rdf-syntax-ns#"
   xmlns:svg="http://www.w3.org/2000/svg"
   xmlns="http://www.w3.org/2000/svg"
   xmlns:sodipodi="http://sodipodi.sourceforge.net/DTD/sodipodi-0.dtd"
   xmlns:inkscape="http://www.inkscape.org/namespaces/inkscape"
   width="24.583067mm"
   height="24.583067mm"
   viewBox="0 0 87.105355 87.105355"
   id="svg2"
   version="1.1"
   inkscape:version="0.91 r13725"
   sodipodi:docname="trend_bar_color2.svg"
   inkscape:export-filename="C:\Users\beto\OneDrive\UNICEF\india_co\pbi\imgs\bar_trend_logo2.png"
   inkscape:export-xdpi="1200"
   inkscape:export-ydpi="1200">
  <defs
     id="defs4">
    <marker
       inkscape:stockid="Arrow2Send"
       orient="auto"
       refY="0"
       refX="0"
       id="marker4514"
       style="overflow:visible"
       inkscape:isstock="true">
      <path
         id="path4516"
         style="fill:#12239e;fill-opacity:1;fill-rule:evenodd;stroke:#12239e;stroke-width:0.625;stroke-linejoin:round;stroke-opacity:1"
         d="M 8.7185878,4.0337352 -2.2072895,0.01601326 8.7185884,-4.0017078 c -1.7454984,2.3720609 -1.7354408,5.6174519 -6e-7,8.035443 z"
         transform="matrix(-0.3,0,0,-0.3,0.69,0)"
         inkscape:connector-curvature="0" />
    </marker>
    <marker
       inkscape:stockid="Arrow1Send"
       orient="auto"
       refY="0"
       refX="0"
       id="Arrow1Send"
       style="overflow:visible"
       inkscape:isstock="true">
      <path
         id="path4183"
         d="M 0,0 5,-5 -12.5,0 5,5 0,0 Z"
         style="fill:#12239e;fill-opacity:1;fill-rule:evenodd;stroke:#12239e;stroke-width:1pt;stroke-opacity:1"
         transform="matrix(-0.2,0,0,-0.2,-1.2,0)"
         inkscape:connector-curvature="0" />
    </marker>
    <marker
       inkscape:stockid="Arrow1Mend"
       orient="auto"
       refY="0"
       refX="0"
       id="Arrow1Mend"
       style="overflow:visible"
       inkscape:isstock="true">
      <path
         id="path4177"
         d="M 0,0 5,-5 -12.5,0 5,5 0,0 Z"
         style="fill:#12239e;fill-opacity:1;fill-rule:evenodd;stroke:#12239e;stroke-width:1pt;stroke-opacity:1"
         transform="matrix(-0.4,0,0,-0.4,-4,0)"
         inkscape:connector-curvature="0" />
    </marker>
    <marker
       inkscape:stockid="Arrow2Send"
       orient="auto"
       refY="0"
       refX="0"
       id="Arrow2Send"
       style="overflow:visible"
       inkscape:isstock="true">
      <path
         id="path4201"
         style="fill:#12239e;fill-opacity:1;fill-rule:evenodd;stroke:#12239e;stroke-width:0.625;stroke-linejoin:round;stroke-opacity:1"
         d="M 8.7185878,4.0337352 -2.2072895,0.01601326 8.7185884,-4.0017078 c -1.7454984,2.3720609 -1.7354408,5.6174519 -6e-7,8.035443 z"
         transform="matrix(-0.3,0,0,-0.3,0.69,0)"
         inkscape:connector-curvature="0" />
    </marker>
    <clipPath
       id="clip0">
      <rect
         id="rect4179"
         height="227"
         width="1920"
         y="0"
         x="0" />
    </clipPath>
  </defs>
  <sodipodi:namedview
     id="base"
     pagecolor="#ffffff"
     bordercolor="#666666"
     borderopacity="1.0"
     inkscape:pageopacity="0.0"
     inkscape:pageshadow="2"
     inkscape:zoom="3.959798"
     inkscape:cx="27.286067"
     inkscape:cy="11.242967"
     inkscape:document-units="px"
     inkscape:current-layer="layer1"
     showgrid="false"
     fit-margin-top="0"
     fit-margin-left="0"
     fit-margin-right="0"
     fit-margin-bottom="0"
     inkscape:window-width="1680"
     inkscape:window-height="987"
     inkscape:window-x="1912"
     inkscape:window-y="-8"
     inkscape:window-maximized="1" />
  <metadata
     id="metadata7">
    <rdf:RDF>
      <cc:Work
         rdf:about="">
        <dc:format>image/svg+xml</dc:format>
        <dc:type
           rdf:resource="http://purl.org/dc/dcmitype/StillImage" />
        <dc:title></dc:title>
      </cc:Work>
    </rdf:RDF>
  </metadata>
  <g
     inkscape:label="Layer 1"
     inkscape:groupmode="layer"
     id="layer1"
     transform="translate(-182.59521,-183.13609)">
    <circle
       style="opacity:1;fill:none;fill-opacity:0.51655626;stroke:#00b0f0;stroke-width:4;stroke-miterlimit:4;stroke-dasharray:none;stroke-dashoffset:0;stroke-opacity:1"
       id="path3347"
       cx="226.52673"
       cy="227.57268"
       r="34.092648"
       inkscape:export-xdpi="1200"
       inkscape:export-ydpi="1200" />
    <rect
       style="opacity:1;fill:none;fill-opacity:0.51655626;stroke:#00b0f0;stroke-width:2;stroke-linecap:butt;stroke-linejoin:round;stroke-miterlimit:4;stroke-dasharray:none;stroke-dashoffset:0;stroke-opacity:1"
       id="rect4149"
       width="85.105354"
       height="85.105354"
       x="183.59521"
       y="184.13609"
       ry="19.950512"
       inkscape:export-xdpi="1200"
       inkscape:export-ydpi="1200" />
    <path
       style="fill:#00b0f0;fill-opacity:1;stroke:#00b0f0;stroke-width:0.2;stroke-linecap:butt;stroke-linejoin:miter;stroke-miterlimit:4;stroke-dasharray:none;stroke-opacity:1"
       d="m 204.04483,247.50169 c -0.77663,-0.0608 -0.83743,-0.11083 -0.88964,-0.73223 -0.0205,-0.24357 -0.0476,-2.76726 -0.0602,-5.6082 -0.0277,-6.21951 -0.007,-6.7548 0.27953,-7.05919 0.2429,-0.2585 0.92724,-0.32334 3.38898,-0.32113 1.99128,0.002 2.81812,0.0476 3.37161,0.18698 0.24364,0.0613 0.30101,0.14838 0.35235,0.53466 0.0929,0.69891 0.12416,3.50788 0.0834,7.49229 -0.0225,2.20144 -0.0413,4.32837 -0.0416,4.7265 l -6e-4,0.72387 -1.63568,0.0271 c -3.25734,0.054 -4.44148,0.0612 -4.84813,0.0293 z"
       id="path3367"
       inkscape:connector-curvature="0" />
    <path
       style="fill:#00b0f0;fill-opacity:1;stroke:#00b0f0;stroke-width:0.2;stroke-linecap:butt;stroke-linejoin:miter;stroke-miterlimit:4;stroke-dasharray:none;stroke-opacity:1"
       d="m 212.98985,245.13006 c 0.0277,-2.70648 0.10332,-12.84046 0.10333,-13.84333 l 0,-0.64794 3.55942,0 3.55942,0 0.001,0.54509 c 5.5e-4,0.2998 0.0279,3.9977 0.0607,8.21755 0.0328,4.21985 0.0602,7.77891 0.0608,7.90901 l 0.001,0.23655 -3.68517,0 -3.68516,0 0.0247,-2.41693 z"
       id="path4193"
       inkscape:connector-curvature="0" />
    <path
       style="fill:#00b0f0;fill-opacity:1;stroke:#00b0f0;stroke-width:0.2;stroke-linecap:butt;stroke-linejoin:miter;stroke-miterlimit:4;stroke-dasharray:none;stroke-opacity:1"
       d="m 223.75648,247.48283 c -0.38408,-0.0212 -0.75379,-0.0684 -0.82158,-0.10497 -0.0678,-0.0365 -0.1398,-0.14917 -0.16003,-0.2503 -0.0486,-0.24302 -0.0472,-12.99934 0.002,-17.67179 l 0.0387,-3.67491 3.65668,0 3.65667,0 0,10.81521 0,10.81521 -0.94566,0.0336 c -1.60068,0.0569 -4.69084,0.0785 -5.42658,0.0379 z"
       id="path4195"
       inkscape:connector-curvature="0" />
    <path
       style="fill:#00b0f0;fill-opacity:1;stroke:#00b0f0;stroke-width:0.2;stroke-linecap:butt;stroke-linejoin:miter;stroke-miterlimit:4;stroke-dasharray:none;stroke-opacity:1"
       d="m 232.59042,247.21076 c 0.0182,-0.18399 0.0484,-6.35611 0.0669,-13.71583 0.0186,-7.35972 0.0476,-13.4533 0.0645,-13.5413 l 0.0307,-0.15999 3.51218,0 c 3.29518,0 3.51397,0.006 3.54099,0.10181 0.0158,0.056 0.0444,6.1234 0.0635,13.48312 0.0191,7.35972 0.0498,13.55802 0.0683,13.77401 l 0.0336,0.39272 -3.70693,0 -3.70694,0 0.0332,-0.33454 z"
       id="path4197"
       inkscape:connector-curvature="0" />
    <path
       style="fill:#00b0f0;fill-opacity:1;stroke:#00b0f0;stroke-width:0.40000001;stroke-linecap:butt;stroke-linejoin:miter;stroke-miterlimit:4;stroke-dasharray:none;stroke-opacity:1"
       d="m 242.79096,247.42291 c -0.17024,-0.0342 -0.3369,-0.0897 -0.37035,-0.12314 -0.0682,-0.0683 -0.0394,-33.37736 0.0288,-33.44564 0.0939,-0.0939 6.49164,-0.10755 6.83545,-0.0146 0.3184,0.0861 0.34463,0.11556 0.39256,0.44107 0.0767,0.52068 0.15885,29.18865 0.0895,31.22225 -0.0571,1.67391 -0.0678,1.75856 -0.2358,1.85479 -0.20138,0.11538 -6.20204,0.17348 -6.74021,0.0653 z"
       id="path4199"
       inkscape:connector-curvature="0" />
    <path
       style="fill:#00b0f0;fill-opacity:1;stroke:#00b0f0;stroke-width:0.2;stroke-linecap:butt;stroke-linejoin:miter;stroke-miterlimit:4;stroke-dasharray:none;stroke-opacity:1"
       d="m 203.64809,226.98017 c -0.23829,-0.0548 -0.32,-0.25079 -0.31949,-0.76643 5e-4,-0.52074 0.13843,-0.88065 0.38609,-1.00741 0.29331,-0.15012 1.41731,-0.48972 3.01981,-0.91239 5.65596,-1.49177 10.04845,-3.10939 14.77757,-5.44212 2.35447,-1.16139 4.35896,-2.29906 6.25584,-3.55055 1.91187,-1.26139 5.53147,-3.91524 6.28484,-4.60797 0.63866,-0.58726 0.44896,-0.60522 -1.6307,-0.15435 -1.45325,0.31507 -2.00577,0.35497 -2.32432,0.16787 -0.29682,-0.17433 -0.42712,-0.43695 -0.4333,-0.87333 -0.005,-0.33199 0.0115,-0.38484 0.16937,-0.55069 0.38277,-0.40223 1.4406,-0.78862 5.19067,-1.89598 2.62444,-0.77498 4.01525,-1.12874 4.43648,-1.12846 0.34193,2.3e-4 0.5858,0.10763 0.88717,0.39072 0.30976,0.29096 0.3137,0.39239 0.0437,1.12739 -0.49692,1.35299 -2.56749,6.19014 -3.11746,7.28278 -0.47596,0.94562 -1.19435,1.32233 -1.75736,0.92154 -0.47773,-0.34009 -0.46536,-1.15345 0.0364,-2.39686 0.2363,-0.58552 0.2795,-0.82511 0.16578,-0.91947 -0.17252,-0.14314 -0.5826,0.10118 -2.19017,1.30484 -7.04734,5.27665 -14.58889,9.08792 -22.95752,11.60202 -3.37406,1.01364 -6.16894,1.58236 -6.9235,1.40885 z"
       id="path4202"
       inkscape:connector-curvature="0" />
  </g>
</svg>
