<?xml version="1.0" encoding="UTF-8" standalone="no"?>
<!-- Generator: Adobe Illustrator 19.0.0, SVG Export Plug-In . SVG Version: 6.00 Build 0)  -->

<svg
   version="1.1"
   id="Layer_1"
   x="0px"
   y="0px"
   viewBox="0 0 92.912369 92.912369"
   xml:space="preserve"
   sodipodi:docname="trend_line.svg"
   width="92.912369"
   height="92.912369"
   inkscape:version="1.1.2 (b8e25be833, 2022-02-05)"
   xmlns:inkscape="http://www.inkscape.org/namespaces/inkscape"
   xmlns:sodipodi="http://sodipodi.sourceforge.net/DTD/sodipodi-0.dtd"
   xmlns="http://www.w3.org/2000/svg"
   xmlns:svg="http://www.w3.org/2000/svg"><defs
   id="defs47" /><sodipodi:namedview
   id="namedview45"
   pagecolor="#ffffff"
   bordercolor="#666666"
   borderopacity="1.0"
   inkscape:pageshadow="2"
   inkscape:pageopacity="0.0"
   inkscape:pagecheckerboard="0"
   showgrid="false"
   fit-margin-top="0"
   fit-margin-left="0"
   fit-margin-right="0"
   fit-margin-bottom="0"
   inkscape:zoom="6.109375"
   inkscape:cx="37.074169"
   inkscape:cy="50.741688"
   inkscape:window-width="1920"
   inkscape:window-height="986"
   inkscape:window-x="-11"
   inkscape:window-y="-11"
   inkscape:window-maximized="1"
   inkscape:current-layer="Layer_1" />

<g
   id="g69"
   transform="matrix(0.36384695,0,0,0.36384695,-280.29624,-42.034841)"
   style="fill:#00b0f0;fill-opacity:1;stroke:#00b0f0;stroke-width:1.00042;stroke-miterlimit:4;stroke-dasharray:none;stroke-opacity:1"><g
     id="g6"
     transform="matrix(0.25830767,0,0,0.25830767,832.81841,179.46873)"
     style="fill:#00b0f0;fill-opacity:1;stroke:#00b0f0;stroke-width:3.87298;stroke-miterlimit:4;stroke-dasharray:none;stroke-opacity:1">
	<g
   id="g4"
   style="fill:#00b0f0;fill-opacity:1;stroke:#00b0f0;stroke-width:3.87298;stroke-miterlimit:4;stroke-dasharray:none;stroke-opacity:1">
		<path
   d="M 501.801,466.153 H 61.144 l 55.608,-61.873 c 4.883,2.589 10.446,4.062 16.348,4.062 13.586,0 25.382,-7.781 31.188,-19.115 l 56.818,14.347 c 1.503,17.938 16.574,32.078 34.895,32.078 19.314,0 35.027,-15.713 35.027,-35.027 0,-10.651 -4.784,-20.201 -12.31,-26.63 l 46.335,-110.741 32.997,84.143 c -7.887,6.429 -12.936,16.213 -12.936,27.157 0,19.314 15.714,35.027 35.028,35.027 19.314,0 35.027,-15.713 35.027,-35.027 0,-3.946 -0.666,-7.738 -1.875,-11.28 l 40.474,-40.476 c 3.983,-3.983 3.983,-10.441 0,-14.425 -3.983,-3.982 -10.441,-3.982 -14.424,0 l -38.182,38.182 c -5.859,-4.411 -13.141,-7.029 -21.023,-7.029 -1.082,0 -2.151,0.056 -3.209,0.153 l -40.571,-103.457 40.757,-97.409 c 0.997,0.086 2.003,0.139 3.022,0.139 16.219,0 29.893,-11.081 33.861,-26.07 h 64.21 c 5.633,0 10.199,-4.567 10.199,-10.199 0,-5.632 -4.566,-10.199 -10.199,-10.199 h -64.971 c -4.753,-13.712 -17.79,-23.588 -33.099,-23.588 -19.314,0 -35.028,15.713 -35.028,35.028 0,11.011 5.112,20.845 13.081,27.272 l -32.53,77.746 -47.52,-121.177 c 7.14,-6.417 11.641,-15.717 11.641,-26.051 0,-19.315 -15.714,-35.028 -35.028,-35.028 -19.314,0 -35.025,15.713 -35.025,35.028 0,8.356 2.946,16.036 7.847,22.063 l -84.08,127.394 c -3.644,-1.288 -7.561,-1.996 -11.64,-1.996 -4.185,0 -8.199,0.74 -11.922,2.092 L 47.709,116.232 V 12.062 C 47.709,6.43 43.143,1.863 37.51,1.863 c -5.633,0 -10.2,4.567 -10.2,10.199 V 112.349 H 10.199 C 4.566,112.348 0,116.916 0,122.548 c 0,5.632 4.566,10.199 10.199,10.199 H 27.311 V 235.249 H 10.199 C 4.566,235.249 0,239.816 0,245.448 c 0,5.632 4.566,10.199 10.199,10.199 H 27.311 V 360.633 H 10.199 C 4.566,360.633 0,365.2 0,370.832 c 0,5.632 4.566,10.199 10.199,10.199 h 17.112 v 95.321 c 0,5.632 4.566,10.199 10.199,10.199 h 87.873 v 13.387 c 0,5.632 4.566,10.199 10.199,10.199 5.633,0 10.199,-4.567 10.199,-10.199 v -13.387 h 102.502 v 13.387 c 0,5.632 4.566,10.199 10.199,10.199 5.633,0 10.199,-4.567 10.199,-10.199 v -13.387 h 104.984 v 13.387 c 0,5.632 4.566,10.199 10.199,10.199 5.633,0 10.199,-4.567 10.199,-10.199 v -13.387 h 107.735 c 5.633,0 10.199,-4.567 10.199,-10.199 0,-5.632 -4.563,-10.199 -10.196,-10.199 z M 380.143,359.926 c 8.065,0 14.629,6.563 14.629,14.63 0,8.065 -6.563,14.629 -14.629,14.629 -8.067,0 -14.63,-6.563 -14.63,-14.629 0,-8.067 6.563,-14.63 14.63,-14.63 z M 380.142,89.297 c 8.067,0 14.629,6.563 14.629,14.63 0,8.067 -6.563,14.63 -14.629,14.63 -8.067,0 -14.63,-6.563 -14.63,-14.63 0,-8.067 6.563,-14.63 14.63,-14.63 z M 133.1,387.943 c -8.067,0 -14.629,-6.563 -14.629,-14.63 0,-8.066 6.563,-14.629 14.629,-14.629 8.066,0 14.629,6.563 14.629,14.629 -0.001,8.068 -6.563,14.63 -14.629,14.63 z M 256,415.254 c -8.067,0 -14.629,-6.563 -14.629,-14.629 0,-8.067 6.563,-14.63 14.629,-14.63 8.066,0 14.629,6.563 14.629,14.63 0,8.066 -6.562,14.629 -14.629,14.629 z M 254.759,47.089 c 8.067,0 14.63,6.563 14.63,14.63 0,8.067 -6.563,14.63 -14.63,14.63 -8.067,0 -14.629,-6.563 -14.629,-14.63 0,-8.067 6.562,-14.63 14.629,-14.63 z M 131.857,229.578 c 8.068,0 14.63,6.562 14.63,14.629 0,8.067 -6.563,14.63 -14.63,14.63 -8.067,0 -14.629,-6.563 -14.629,-14.63 0.001,-8.066 6.564,-14.629 14.629,-14.629 z m -84.147,-79.63 55.91,73.566 c -4.263,5.802 -6.789,12.957 -6.789,20.692 0,19.315 15.713,35.028 35.027,35.028 19.314,0 35.028,-15.713 35.028,-35.028 0,-7.832 -2.584,-15.071 -6.945,-20.911 L 244.48,95.205 c 3.252,1 6.703,1.541 10.278,1.541 1.65,0 3.272,-0.123 4.862,-0.345 l 54.735,139.574 -54.336,129.86 c -1.32,-0.151 -2.66,-0.238 -4.02,-0.238 -13.145,0 -24.617,7.282 -30.607,18.021 l -57.53,-14.528 c -2.093,-17.328 -16.88,-30.805 -34.764,-30.805 -19.314,0 -35.027,15.713 -35.027,35.027 0,5.995 1.516,11.642 4.182,16.581 l -54.543,60.69 z"
   id="path2"
   style="fill:#00b0f0;fill-opacity:1;stroke:#00b0f0;stroke-width:3.87298;stroke-miterlimit:4;stroke-dasharray:none;stroke-opacity:1" />
	</g>
</g><g
     id="g12"
     transform="matrix(0.25830767,0,0,0.25830767,832.81841,179.46873)"
     style="fill:#00b0f0;fill-opacity:1;stroke:#00b0f0;stroke-width:3.87298;stroke-miterlimit:4;stroke-dasharray:none;stroke-opacity:1">
	<g
   id="g10"
   style="fill:#00b0f0;fill-opacity:1;stroke:#00b0f0;stroke-width:3.87298;stroke-miterlimit:4;stroke-dasharray:none;stroke-opacity:1">
		<path
   d="m 488.529,272.375 c -3.983,-3.983 -10.441,-3.983 -14.424,0 l -8.07,8.07 c -3.983,3.984 -3.983,10.441 0,14.425 1.992,1.991 4.602,2.987 7.212,2.987 2.61,0 5.221,-0.996 7.212,-2.987 l 8.07,-8.07 c 3.982,-3.984 3.982,-10.441 0,-14.425 z"
   id="path8"
   style="fill:#00b0f0;fill-opacity:1;stroke:#00b0f0;stroke-width:3.87298;stroke-miterlimit:4;stroke-dasharray:none;stroke-opacity:1" />
	</g>
</g></g>
<g
   id="g14"
   transform="translate(-1158.9044,-224.60263)">
</g>
<g
   id="g16"
   transform="translate(-1158.9044,-224.60263)">
</g>
<g
   id="g18"
   transform="translate(-1158.9044,-224.60263)">
</g>
<g
   id="g20"
   transform="translate(-1158.9044,-224.60263)">
</g>
<g
   id="g22"
   transform="translate(-1158.9044,-224.60263)">
</g>
<g
   id="g24"
   transform="translate(-1158.9044,-224.60263)">
</g>
<g
   id="g26"
   transform="translate(-1158.9044,-224.60263)">
</g>
<g
   id="g28"
   transform="translate(-1158.9044,-224.60263)">
</g>
<g
   id="g30"
   transform="translate(-1158.9044,-224.60263)">
</g>
<g
   id="g32"
   transform="translate(-1158.9044,-224.60263)">
</g>
<g
   id="g34"
   transform="translate(-1158.9044,-224.60263)">
</g>
<g
   id="g36"
   transform="translate(-1158.9044,-224.60263)">
</g>
<g
   id="g38"
   transform="translate(-1158.9044,-224.60263)">
</g>
<g
   id="g40"
   transform="translate(-1158.9044,-224.60263)">
</g>
<g
   id="g42"
   transform="translate(-1158.9044,-224.60263)">
</g>
<circle
   inkscape:export-ydpi="1200"
   inkscape:export-xdpi="1200"
   r="36.36549"
   cy="47.399048"
   cx="46.860245"
   id="path3347"
   style="fill:none;fill-opacity:0.516556;stroke:#00b0f0;stroke-width:4.26667;stroke-miterlimit:4;stroke-dasharray:none;stroke-dashoffset:0;stroke-opacity:1" /><rect
   inkscape:export-ydpi="1200"
   inkscape:export-xdpi="1200"
   ry="21.280544"
   y="1.0666651"
   x="1.0666651"
   height="90.779037"
   width="90.779037"
   id="rect4149"
   style="fill:none;fill-opacity:0.516556;stroke:#00b0f0;stroke-width:2.13333;stroke-linecap:butt;stroke-linejoin:round;stroke-miterlimit:4;stroke-dasharray:none;stroke-dashoffset:0;stroke-opacity:1" /></svg>
